<svg width="488" height="488" viewBox="0 0 488 488" fill="none" xmlns="http://www.w3.org/2000/svg">
<mask id="path-1-inside-1_2019_207" fill="white">
<path fill-rule="evenodd" clip-rule="evenodd" d="M244 488C109.243 488 0 378.757 0 244C0 109.243 109.243 0 244 0C378.757 0 488 109.243 488 244C488 378.757 378.757 488 244 488ZM151.5 202C130.237 202 113 184.763 113 163.5C113 142.237 130.237 125 151.5 125C172.763 125 190 142.237 190 163.5C190 184.763 172.763 202 151.5 202ZM299 163.5C299 184.763 316.237 202 337.5 202C358.763 202 376 184.763 376 163.5C376 142.237 358.763 125 337.5 125C316.237 125 299 142.237 299 163.5ZM216.627 356.164L221.803 375.482L347.373 341.836L342.197 322.517L216.627 356.164Z"/>
</mask>
<path fill-rule="evenodd" clip-rule="evenodd" d="M244 488C109.243 488 0 378.757 0 244C0 109.243 109.243 0 244 0C378.757 0 488 109.243 488 244C488 378.757 378.757 488 244 488ZM151.5 202C130.237 202 113 184.763 113 163.5C113 142.237 130.237 125 151.5 125C172.763 125 190 142.237 190 163.5C190 184.763 172.763 202 151.5 202ZM299 163.5C299 184.763 316.237 202 337.5 202C358.763 202 376 184.763 376 163.5C376 142.237 358.763 125 337.5 125C316.237 125 299 142.237 299 163.5ZM216.627 356.164L221.803 375.482L347.373 341.836L342.197 322.517L216.627 356.164Z" fill="white"/>
<path d="M221.803 375.482L202.485 380.659L207.661 399.977L226.979 394.801L221.803 375.482ZM216.627 356.164L211.45 336.845L192.132 342.022L197.308 361.34L216.627 356.164ZM347.373 341.836L352.55 361.154L371.868 355.978L366.692 336.66L347.373 341.836ZM342.197 322.517L361.516 317.341L356.339 298.023L337.021 303.199L342.197 322.517ZM-20 244C-20 389.803 98.1968 508 244 508V468C120.288 468 20 367.712 20 244H-20ZM244 -20C98.1968 -20 -20 98.1968 -20 244H20C20 120.288 120.288 20 244 20V-20ZM508 244C508 98.1968 389.803 -20 244 -20V20C367.712 20 468 120.288 468 244H508ZM244 508C389.803 508 508 389.803 508 244H468C468 367.712 367.712 468 244 468V508ZM93 163.5C93 195.809 119.191 222 151.5 222V182C141.283 182 133 173.717 133 163.5H93ZM151.5 105C119.191 105 93 131.191 93 163.5H133C133 153.283 141.283 145 151.5 145V105ZM210 163.5C210 131.191 183.809 105 151.5 105V145C161.717 145 170 153.283 170 163.5H210ZM151.5 222C183.809 222 210 195.809 210 163.5H170C170 173.717 161.717 182 151.5 182V222ZM337.5 182C327.283 182 319 173.717 319 163.5H279C279 195.809 305.191 222 337.5 222V182ZM356 163.5C356 173.717 347.717 182 337.5 182V222C369.809 222 396 195.809 396 163.5H356ZM337.5 145C347.717 145 356 153.283 356 163.5H396C396 131.191 369.809 105 337.5 105V145ZM319 163.5C319 153.283 327.283 145 337.5 145V105C305.191 105 279 131.191 279 163.5H319ZM241.122 370.306L235.945 350.988L197.308 361.34L202.485 380.659L241.122 370.306ZM342.197 322.517L216.627 356.164L226.979 394.801L352.55 361.154L342.197 322.517ZM322.879 327.694L328.055 347.012L366.692 336.66L361.516 317.341L322.879 327.694ZM221.803 375.482L347.373 341.836L337.021 303.199L211.45 336.845L221.803 375.482Z" fill="white" mask="url(#path-1-inside-1_2019_207)"/>
</svg>
