<svg width="488" height="488" viewBox="0 0 488 488" fill="none" xmlns="http://www.w3.org/2000/svg">
<path fill-rule="evenodd" clip-rule="evenodd" d="M244 488C109.243 488 0 378.757 0 244C0 109.243 109.243 0 244 0C378.757 0 488 109.243 488 244C488 378.757 378.757 488 244 488ZM244.5 410C161.933 410 95 343.291 95 261.001L244.5 261L394 261.001C394 343.291 327.067 410 244.5 410ZM113 163.5C113 184.763 130.237 202 151.5 202C172.763 202 190 184.763 190 163.5C190 142.237 172.763 125 151.5 125C130.237 125 113 142.237 113 163.5ZM337.5 202C316.237 202 299 184.763 299 163.5C299 142.237 316.237 125 337.5 125C358.763 125 376 142.237 376 163.5C376 184.763 358.763 202 337.5 202Z" fill="white"/>
</svg>
