<svg width="488" height="488" viewBox="0 0 488 488" fill="none" xmlns="http://www.w3.org/2000/svg">
<path fill-rule="evenodd" clip-rule="evenodd" d="M244 488C109.243 488 0 378.757 0 244C0 109.243 109.243 0 244 0C378.757 0 488 109.243 488 244C488 378.757 378.757 488 244 488ZM151.5 202C130.237 202 113 184.763 113 163.5C113 142.237 130.237 125 151.5 125C172.763 125 190 142.237 190 163.5C190 184.763 172.763 202 151.5 202ZM299 163.5C299 184.763 316.237 202 337.5 202C358.763 202 376 184.763 376 163.5C376 142.237 358.763 125 337.5 125C316.237 125 299 142.237 299 163.5ZM243.5 399.999C320.575 399.999 383 337.735 383 261H403C403 348.844 331.558 419.999 243.5 419.999C155.442 419.999 84 348.844 84 261H104C104 337.735 166.425 399.999 243.5 399.999Z" fill="#FFCC26"/>
</svg>
