<svg width="286" height="309" viewBox="0 0 286 309" fill="none" xmlns="http://www.w3.org/2000/svg">
<mask id="path-1-outside-1_2021_230" maskUnits="userSpaceOnUse" x="-0.346997" y="23.1714" width="286" height="286" fill="black">
<rect fill="white" x="-0.346997" y="23.1714" width="286" height="286"/>
<path fill-rule="evenodd" clip-rule="evenodd" d="M11 166.768C11.4141 239.221 70.2757 297.827 142.825 297.827C215.632 297.827 274.653 238.805 274.653 165.999C274.653 93.1926 215.632 34.1714 142.825 34.1714C112.792 34.1714 85.1037 44.215 62.937 61.1267L62.4329 60.2535C84.7507 43.2604 112.61 33.1714 142.825 33.1714C216.184 33.1714 275.653 92.6403 275.653 165.999C275.653 239.358 216.184 298.827 142.825 298.827C69.7234 298.827 10.4141 239.773 9.99999 166.768L11 166.768Z"/>
</mask>
<path fill-rule="evenodd" clip-rule="evenodd" d="M11 166.768C11.4141 239.221 70.2757 297.827 142.825 297.827C215.632 297.827 274.653 238.805 274.653 165.999C274.653 93.1926 215.632 34.1714 142.825 34.1714C112.792 34.1714 85.1037 44.215 62.937 61.1267L62.4329 60.2535C84.7507 43.2604 112.61 33.1714 142.825 33.1714C216.184 33.1714 275.653 92.6403 275.653 165.999C275.653 239.358 216.184 298.827 142.825 298.827C69.7234 298.827 10.4141 239.773 9.99999 166.768L11 166.768Z" fill="#282828"/>
<path d="M11 166.768L20.9999 166.711C20.9684 161.211 16.5006 156.768 11 156.768L11 166.768ZM62.937 61.1267L54.2767 66.1266C55.7142 68.6164 58.1536 70.367 60.9725 70.9318C63.7914 71.4966 66.717 70.8209 69.0026 69.0771L62.937 61.1267ZM62.4329 60.2535L56.3749 52.2973C52.371 55.346 51.2564 60.8952 53.7726 65.2534L62.4329 60.2535ZM9.99999 166.768L9.99999 156.768C7.338 156.768 4.78587 157.83 2.9089 159.717C1.03193 161.605 -0.0149449 164.163 0.000155044 166.825L9.99999 166.768ZM1.00019 166.826C1.44573 244.775 64.772 307.827 142.825 307.827L142.825 287.827C75.7794 287.827 21.3826 233.666 20.9999 166.711L1.00019 166.826ZM142.825 307.827C221.155 307.827 284.653 244.328 284.653 165.999L264.653 165.999C264.653 233.282 210.109 287.827 142.825 287.827L142.825 307.827ZM284.653 165.999C284.653 87.6698 221.155 24.1714 142.825 24.1714L142.825 44.1714C210.109 44.1714 264.653 98.7155 264.653 165.999L284.653 165.999ZM142.825 24.1714C110.525 24.1714 80.7199 34.9815 56.8714 53.1763L69.0026 69.0771C89.4875 53.4484 115.059 44.1714 142.825 44.1714L142.825 24.1714ZM53.7726 65.2534L54.2767 66.1266L71.5973 56.1268L71.0932 55.2536L53.7726 65.2534ZM142.825 23.1714C110.346 23.1714 80.3733 34.0246 56.3749 52.2973L68.4909 68.2097C89.1281 52.4962 114.873 43.1714 142.825 43.1714L142.825 23.1714ZM285.653 165.999C285.653 87.1175 221.707 23.1714 142.825 23.1714L142.825 43.1714C210.661 43.1714 265.653 98.1632 265.653 165.999L285.653 165.999ZM142.825 308.827C221.707 308.827 285.653 244.88 285.653 165.999L265.653 165.999C265.653 233.835 210.661 288.827 142.825 288.827L142.825 308.827ZM0.000155044 166.825C0.44546 245.327 64.2196 308.827 142.825 308.827L142.825 288.827C75.2273 288.827 20.3828 234.219 19.9998 166.712L0.000155044 166.825ZM11 156.768L9.99999 156.768L9.99999 176.768L11 176.768L11 156.768Z" fill="#282828" mask="url(#path-1-outside-1_2021_230)"/>
<path d="M66.2601 10.3079L52.6432 67.5043L109.84 81.1213" stroke="#282828" stroke-width="20" stroke-linecap="round" stroke-linejoin="round"/>
</svg>
