<svg width="488" height="488" viewBox="0 0 488 488" fill="none" xmlns="http://www.w3.org/2000/svg">
<path fill-rule="evenodd" clip-rule="evenodd" d="M0 244C0 378.757 109.243 488 244 488C378.757 488 488 378.757 488 244C488 109.243 378.757 0 244 0C109.243 0 0 109.243 0 244ZM113 163.5C113 184.763 130.237 202 151.5 202C172.763 202 190 184.763 190 163.5C190 142.237 172.763 125 151.5 125C130.237 125 113 142.237 113 163.5ZM337.5 202C316.237 202 299 184.763 299 163.5C299 142.237 316.237 125 337.5 125C358.763 125 376 142.237 376 163.5C376 184.763 358.763 202 337.5 202ZM154 387C154 337.894 194.023 298 243.5 298C292.977 298 333 337.894 333 387H353C353 326.754 303.928 278 243.5 278C183.072 278 134 326.753 134 387H154ZM141.5 273C152.822 273 162 263.775 162 252.395C162 245.664 154.829 233.814 148.969 225.255C145.315 219.917 137.685 219.917 134.031 225.255C128.171 233.814 121 245.664 121 252.395C121 263.775 130.178 273 141.5 273Z" fill="white"/>
</svg>
