<svg width="537" height="488" viewBox="0 0 537 488" fill="none" xmlns="http://www.w3.org/2000/svg">
<circle cx="244" cy="244" r="234" transform="matrix(-1 0 0 1 488 0)" stroke="#BC27BA" stroke-width="20"/>
<circle cx="23" cy="23" r="13" transform="matrix(-1 0 0 1 267 336)" fill="#BC27BA" stroke="#BC27BA" stroke-width="20"/>
<path d="M405.408 85L375.454 114.954C371.593 118.815 370.438 124.622 372.528 129.666C374.617 134.711 379.54 138 385 138H438C445.456 138 451.5 131.956 451.5 124.5C451.5 117.044 445.456 111 438 111H417.592L447.546 81.0459C451.407 77.185 452.562 71.3784 450.473 66.3338C448.383 61.2892 443.461 58 438 58H385C377.544 58 371.5 64.0442 371.5 71.5C371.5 78.9558 377.544 85 385 85H405.408Z" fill="#BC27BA" stroke="white" stroke-width="9" stroke-linecap="round" stroke-linejoin="round"/>
<path fill-rule="evenodd" clip-rule="evenodd" d="M466 50.5C462.687 50.5 460 47.8137 460 44.5C460 41.1863 462.687 38.5 466 38.5H493C495.427 38.5 497.615 39.9619 498.544 42.2039C499.472 44.4459 498.959 47.0267 497.243 48.7426L480.486 65.5H493C496.314 65.5 499 68.1863 499 71.5C499 74.8137 496.314 77.5 493 77.5H466C463.573 77.5 461.386 76.0382 460.457 73.7961C459.528 71.5541 460.042 68.9733 461.758 67.2574L478.515 50.5H466Z" fill="#BC27BA"/>
<path fill-rule="evenodd" clip-rule="evenodd" d="M512.5 26.5C512.5 25.1193 513.62 24 515 24H534C535.024 24 535.944 24.6238 536.323 25.5746C536.702 26.5253 536.463 27.611 535.72 28.3149L521.274 42H534C535.381 42 536.5 43.1193 536.5 44.5C536.5 45.8807 535.381 47 534 47H515C513.977 47 513.057 46.3762 512.678 45.4254C512.299 44.4747 512.538 43.389 513.281 42.6851L527.726 29H515C513.62 29 512.5 27.8807 512.5 26.5Z" fill="#BC27BA"/>
<path fill-rule="evenodd" clip-rule="evenodd" d="M178.721 225.932L178.701 225.943C178.672 225.96 178.615 225.992 178.531 226.038C178.363 226.131 178.087 226.28 177.709 226.472C176.953 226.858 175.796 227.417 174.296 228.048C171.288 229.314 166.95 230.848 161.74 231.871C151.271 233.926 137.711 233.84 124.304 225.943C120.333 223.605 115.608 225.764 113.751 230.767C111.895 235.769 113.609 241.721 117.58 244.06C134.734 254.163 151.733 254.076 164.185 251.631C170.435 250.404 175.647 248.564 179.325 247.017C181.167 246.242 182.636 245.536 183.671 245.007C184.188 244.743 184.598 244.523 184.893 244.361C185.04 244.28 185.159 244.213 185.248 244.162C185.292 244.137 185.329 244.116 185.359 244.098L185.397 244.076L185.412 244.067L185.419 244.063C185.422 244.062 185.425 244.06 182.088 235.07L185.425 244.06C189.396 241.721 191.11 235.769 189.253 230.767C187.4 225.772 182.688 223.612 178.721 225.932Z" fill="#BC27BA"/>
<path fill-rule="evenodd" clip-rule="evenodd" d="M364.718 225.932L364.698 225.943C364.67 225.96 364.613 225.992 364.529 226.038C364.361 226.131 364.084 226.28 363.707 226.472C362.95 226.858 361.793 227.417 360.293 228.048C357.286 229.314 352.948 230.848 347.738 231.871C337.269 233.926 323.708 233.84 310.302 225.943C306.33 223.605 301.606 225.764 299.749 230.767C297.892 235.769 299.606 241.721 303.578 244.06C320.731 254.163 337.731 254.076 350.182 251.631C356.433 250.404 361.645 248.564 365.322 247.017C367.165 246.242 368.634 245.536 369.668 245.007C370.186 244.743 370.596 244.523 370.89 244.361C371.038 244.28 371.156 244.213 371.245 244.162C371.29 244.137 371.327 244.116 371.356 244.098L371.395 244.076L371.41 244.067L371.416 244.063C371.419 244.062 371.422 244.06 368.086 235.07L371.422 244.06C375.394 241.721 377.108 235.769 375.251 230.767C373.397 225.772 368.685 223.612 364.718 225.932Z" fill="#BC27BA"/>
</svg>
