<svg width="537" height="488" viewBox="0 0 537 488" fill="none" xmlns="http://www.w3.org/2000/svg">
<path fill-rule="evenodd" clip-rule="evenodd" d="M244 488C109.243 488 0 378.757 0 244C0 109.243 109.243 0 244 0C378.757 0 488 109.243 488 244C488 378.757 378.757 488 244 488ZM244 382C231.297 382 221 371.703 221 359C221 346.297 231.297 336 244 336C256.703 336 267 346.297 267 359C267 371.703 256.703 382 244 382ZM178.718 225.932C179.711 225.351 180.75 225.051 181.779 225.006C181.972 224.998 182.165 224.998 182.357 225.007C185.234 225.144 187.95 227.255 189.253 230.767C191.11 235.769 189.396 241.721 185.425 244.06L185.424 244.059L185.422 244.06L185.084 243.15C185.422 244.062 185.42 244.063 185.419 244.063L185.412 244.067L185.397 244.076L185.359 244.098C185.329 244.116 185.292 244.137 185.248 244.162C185.188 244.196 185.116 244.237 185.03 244.285L184.986 244.31L184.893 244.361C184.598 244.523 184.188 244.743 183.671 245.007C182.636 245.536 181.167 246.242 179.325 247.017C175.647 248.564 170.435 250.404 164.185 251.631C160.294 252.395 155.959 252.929 151.313 252.993C150.849 253 150.381 253.002 149.91 252.998C140.027 252.932 128.836 250.691 117.578 244.06C113.606 241.721 111.892 235.769 113.749 230.767C115.097 227.134 117.958 225 120.944 225C122.071 224.999 123.216 225.303 124.304 225.943C133.102 231.125 141.967 232.944 149.98 233.001C150.362 233.004 150.741 233.003 151.119 232.997C154.894 232.946 158.467 232.513 161.738 231.871C166.948 230.848 171.286 229.314 174.293 228.048C175.793 227.417 176.95 226.858 177.707 226.472C178.084 226.28 178.361 226.131 178.529 226.038C178.613 225.992 178.67 225.96 178.698 225.943L178.718 225.932ZM364.696 225.943L364.716 225.932C365.798 225.299 366.935 225 368.054 225C371.041 224.999 373.902 227.133 375.251 230.767C377.108 235.769 375.394 241.721 371.422 244.06L371.422 244.059C371.421 244.059 371.42 244.06 371.42 244.06L371.078 243.138C371.419 244.062 371.418 244.063 371.416 244.063L371.41 244.067L371.395 244.076L371.356 244.098C371.327 244.116 371.29 244.137 371.245 244.162C371.197 244.19 371.14 244.222 371.075 244.258C371.02 244.289 370.958 244.324 370.891 244.361C370.596 244.523 370.186 244.743 369.668 245.007C368.634 245.536 367.165 246.242 365.322 247.017C361.645 248.564 356.433 250.404 350.182 251.631C347.069 252.243 343.671 252.706 340.057 252.9C336.854 253.072 333.481 253.032 329.986 252.695C321.657 251.891 312.638 249.397 303.575 244.06C299.604 241.721 297.89 235.769 299.747 230.767C301.023 227.327 303.655 225.232 306.466 225.018C306.721 224.999 306.978 224.995 307.236 225.007C308.267 225.055 309.308 225.358 310.302 225.943C318.68 230.878 327.118 232.763 334.825 232.981C337.233 233.049 339.571 232.954 341.812 232.739C343.874 232.541 345.854 232.24 347.735 231.871C352.945 230.848 357.283 229.314 360.291 228.048C361.791 227.417 362.948 226.858 363.704 226.472C364.082 226.28 364.358 226.131 364.526 226.038C364.61 225.992 364.667 225.96 364.696 225.943Z" fill="#BC27BA"/>
<path d="M405.408 85L375.454 114.954C371.593 118.815 370.438 124.622 372.528 129.666C374.617 134.711 379.54 138 385 138H438C445.456 138 451.5 131.956 451.5 124.5C451.5 117.044 445.456 111 438 111H417.592L447.546 81.0459C451.407 77.185 452.562 71.3784 450.473 66.3338C448.383 61.2892 443.461 58 438 58H385C377.544 58 371.5 64.0442 371.5 71.5C371.5 78.9558 377.544 85 385 85H405.408Z" fill="white" stroke="#BC27BA" stroke-width="9" stroke-linecap="round" stroke-linejoin="round"/>
<path fill-rule="evenodd" clip-rule="evenodd" d="M466 50.5C462.686 50.5 460 47.8137 460 44.5C460 41.1863 462.686 38.5 466 38.5H493C495.427 38.5 497.615 39.9619 498.543 42.2039C499.472 44.4459 498.959 47.0267 497.243 48.7426L480.485 65.5H493C496.314 65.5 499 68.1863 499 71.5C499 74.8137 496.314 77.5 493 77.5H466C463.573 77.5 461.386 76.0382 460.457 73.7961C459.528 71.5541 460.042 68.9733 461.758 67.2574L478.515 50.5H466Z" fill="#BC27BA"/>
<path fill-rule="evenodd" clip-rule="evenodd" d="M512.5 26.5C512.5 25.1193 513.62 24 515 24H534C535.024 24 535.944 24.6238 536.323 25.5746C536.702 26.5253 536.463 27.611 535.72 28.3149L521.274 42H534C535.381 42 536.5 43.1193 536.5 44.5C536.5 45.8807 535.381 47 534 47H515C513.977 47 513.057 46.3762 512.678 45.4254C512.299 44.4747 512.538 43.389 513.281 42.6851L527.726 29H515C513.62 29 512.5 27.8807 512.5 26.5Z" fill="#BC27BA"/>
</svg>
