<svg width="537" height="488" viewBox="0 0 537 488" fill="none" xmlns="http://www.w3.org/2000/svg">
<mask id="path-1-inside-1_2017_117" fill="white">
<path fill-rule="evenodd" clip-rule="evenodd" d="M244 488C109.243 488 0 378.757 0 244C0 109.243 109.243 0 244 0C378.757 0 488 109.243 488 244C488 378.757 378.757 488 244 488ZM244 382C231.297 382 221 371.703 221 359C221 346.297 231.297 336 244 336C256.703 336 267 346.297 267 359C267 371.703 256.703 382 244 382ZM178.718 225.932C179.711 225.351 180.75 225.051 181.779 225.006C181.972 224.998 182.165 224.998 182.357 225.007C185.234 225.144 187.95 227.255 189.253 230.767C191.11 235.769 189.396 241.721 185.425 244.06L185.424 244.059L185.422 244.06L185.084 243.15C185.422 244.062 185.42 244.063 185.419 244.063L185.412 244.067L185.397 244.076L185.359 244.098C185.329 244.116 185.292 244.137 185.248 244.162C185.188 244.196 185.116 244.237 185.03 244.285L184.986 244.31L184.893 244.361C184.598 244.523 184.188 244.743 183.671 245.007C182.636 245.536 181.167 246.242 179.325 247.017C175.647 248.564 170.435 250.404 164.185 251.631C160.294 252.395 155.959 252.929 151.313 252.993C150.849 253 150.381 253.002 149.91 252.998C140.027 252.932 128.836 250.691 117.578 244.06C113.606 241.721 111.892 235.769 113.749 230.767C115.097 227.134 117.958 225 120.944 225C122.071 224.999 123.216 225.303 124.304 225.943C133.102 231.125 141.967 232.944 149.98 233.001C150.362 233.004 150.741 233.003 151.119 232.997C154.894 232.946 158.467 232.513 161.738 231.871C166.948 230.848 171.286 229.314 174.293 228.048C175.793 227.417 176.95 226.858 177.707 226.472C178.084 226.28 178.361 226.131 178.529 226.038C178.613 225.992 178.67 225.96 178.698 225.943L178.718 225.932ZM364.696 225.943L364.716 225.932C365.798 225.299 366.935 225 368.054 225C371.041 224.999 373.902 227.133 375.251 230.767C377.108 235.769 375.394 241.721 371.422 244.06L371.422 244.059C371.421 244.059 371.42 244.06 371.42 244.06L371.078 243.138C371.419 244.062 371.418 244.063 371.416 244.063L371.41 244.067L371.395 244.076L371.356 244.098C371.327 244.116 371.29 244.137 371.245 244.162C371.197 244.19 371.14 244.222 371.075 244.258C371.02 244.289 370.958 244.324 370.891 244.361C370.596 244.523 370.186 244.743 369.668 245.007C368.634 245.536 367.165 246.242 365.322 247.017C361.645 248.564 356.433 250.404 350.182 251.631C347.069 252.243 343.671 252.706 340.057 252.9C336.854 253.072 333.481 253.032 329.986 252.695C321.657 251.891 312.638 249.397 303.575 244.06C299.604 241.721 297.89 235.769 299.747 230.767C301.023 227.327 303.655 225.232 306.466 225.018C306.721 224.999 306.978 224.995 307.236 225.007C308.267 225.055 309.308 225.358 310.302 225.943C318.68 230.878 327.118 232.763 334.825 232.981C337.233 233.049 339.571 232.954 341.812 232.739C343.874 232.541 345.854 232.24 347.735 231.871C352.945 230.848 357.283 229.314 360.291 228.048C361.791 227.417 362.948 226.858 363.704 226.472C364.082 226.28 364.358 226.131 364.526 226.038C364.61 225.992 364.667 225.96 364.696 225.943Z"/>
</mask>
<path fill-rule="evenodd" clip-rule="evenodd" d="M244 488C109.243 488 0 378.757 0 244C0 109.243 109.243 0 244 0C378.757 0 488 109.243 488 244C488 378.757 378.757 488 244 488ZM244 382C231.297 382 221 371.703 221 359C221 346.297 231.297 336 244 336C256.703 336 267 346.297 267 359C267 371.703 256.703 382 244 382ZM178.718 225.932C179.711 225.351 180.75 225.051 181.779 225.006C181.972 224.998 182.165 224.998 182.357 225.007C185.234 225.144 187.95 227.255 189.253 230.767C191.11 235.769 189.396 241.721 185.425 244.06L185.424 244.059L185.422 244.06L185.084 243.15C185.422 244.062 185.42 244.063 185.419 244.063L185.412 244.067L185.397 244.076L185.359 244.098C185.329 244.116 185.292 244.137 185.248 244.162C185.188 244.196 185.116 244.237 185.03 244.285L184.986 244.31L184.893 244.361C184.598 244.523 184.188 244.743 183.671 245.007C182.636 245.536 181.167 246.242 179.325 247.017C175.647 248.564 170.435 250.404 164.185 251.631C160.294 252.395 155.959 252.929 151.313 252.993C150.849 253 150.381 253.002 149.91 252.998C140.027 252.932 128.836 250.691 117.578 244.06C113.606 241.721 111.892 235.769 113.749 230.767C115.097 227.134 117.958 225 120.944 225C122.071 224.999 123.216 225.303 124.304 225.943C133.102 231.125 141.967 232.944 149.98 233.001C150.362 233.004 150.741 233.003 151.119 232.997C154.894 232.946 158.467 232.513 161.738 231.871C166.948 230.848 171.286 229.314 174.293 228.048C175.793 227.417 176.95 226.858 177.707 226.472C178.084 226.28 178.361 226.131 178.529 226.038C178.613 225.992 178.67 225.96 178.698 225.943L178.718 225.932ZM364.696 225.943L364.716 225.932C365.798 225.299 366.935 225 368.054 225C371.041 224.999 373.902 227.133 375.251 230.767C377.108 235.769 375.394 241.721 371.422 244.06L371.422 244.059C371.421 244.059 371.42 244.06 371.42 244.06L371.078 243.138C371.419 244.062 371.418 244.063 371.416 244.063L371.41 244.067L371.395 244.076L371.356 244.098C371.327 244.116 371.29 244.137 371.245 244.162C371.197 244.19 371.14 244.222 371.075 244.258C371.02 244.289 370.958 244.324 370.891 244.361C370.596 244.523 370.186 244.743 369.668 245.007C368.634 245.536 367.165 246.242 365.322 247.017C361.645 248.564 356.433 250.404 350.182 251.631C347.069 252.243 343.671 252.706 340.057 252.9C336.854 253.072 333.481 253.032 329.986 252.695C321.657 251.891 312.638 249.397 303.575 244.06C299.604 241.721 297.89 235.769 299.747 230.767C301.023 227.327 303.655 225.232 306.466 225.018C306.721 224.999 306.978 224.995 307.236 225.007C308.267 225.055 309.308 225.358 310.302 225.943C318.68 230.878 327.118 232.763 334.825 232.981C337.233 233.049 339.571 232.954 341.812 232.739C343.874 232.541 345.854 232.24 347.735 231.871C352.945 230.848 357.283 229.314 360.291 228.048C361.791 227.417 362.948 226.858 363.704 226.472C364.082 226.28 364.358 226.131 364.526 226.038C364.61 225.992 364.667 225.96 364.696 225.943Z" fill="white"/>
<path d="M181.779 225.006L182.659 244.987L182.666 244.986L181.779 225.006ZM178.718 225.932L188.671 243.28L188.743 243.238L188.815 243.196L178.718 225.932ZM182.357 225.007L183.309 205.03L183.309 205.03L182.357 225.007ZM189.253 230.767L208.004 223.808L208.004 223.808L189.253 230.767ZM185.425 244.06L166.708 251.109L175.088 273.359L195.574 261.293L185.425 244.06ZM185.424 244.059L204.141 237.01L195.768 214.78L175.29 226.817L185.424 244.059ZM185.422 244.06L166.672 251.019L174.978 273.398L195.557 261.302L185.422 244.06ZM185.084 243.15L203.835 236.191L166.326 250.086L185.084 243.15ZM185.419 244.063L195.517 261.327L195.584 261.287L195.652 261.247L185.419 244.063ZM185.412 244.067L175.315 226.803L175.306 226.809L185.412 244.067ZM185.397 244.076L195.457 261.362L195.481 261.348L195.504 261.334L185.397 244.076ZM185.359 244.098L195.391 261.4L195.405 261.392L195.419 261.384L185.359 244.098ZM185.248 244.162L195.155 261.536L195.156 261.535L185.248 244.162ZM185.03 244.285L194.754 261.762L194.762 261.757L194.771 261.752L185.03 244.285ZM184.986 244.31L194.665 261.812L194.687 261.799L194.709 261.787L184.986 244.31ZM184.893 244.361L194.544 261.878L194.558 261.87L194.572 261.863L184.893 244.361ZM183.671 245.007L192.763 262.821L192.764 262.821L183.671 245.007ZM179.325 247.017L187.08 265.452L187.08 265.452L179.325 247.017ZM164.185 251.631L168.038 271.257L168.038 271.257L164.185 251.631ZM151.313 252.993L151.59 272.992L151.591 272.992L151.313 252.993ZM149.91 252.998L150.046 232.999L150.045 232.999L149.91 252.998ZM117.578 244.06L107.428 261.293L107.428 261.293L117.578 244.06ZM113.749 230.767L132.499 237.726L132.499 237.726L113.749 230.767ZM120.944 225L120.947 245L120.954 245L120.944 225ZM124.304 225.943L114.154 243.177L114.154 243.177L124.304 225.943ZM149.98 233.001L149.837 253.001L149.838 253.001L149.98 233.001ZM151.119 232.997L151.389 252.996L151.39 252.996L151.119 232.997ZM161.738 231.871L157.885 212.246L157.885 212.246L161.738 231.871ZM174.293 228.048L166.538 209.613L166.538 209.613L174.293 228.048ZM177.707 226.472L168.614 208.659L168.614 208.659L177.707 226.472ZM178.529 226.038L168.879 208.52L168.877 208.521L178.529 226.038ZM178.698 225.943L188.608 243.316L188.629 243.303L188.651 243.291L178.698 225.943ZM364.716 225.932L374.668 243.28L374.741 243.238L374.813 243.196L364.716 225.932ZM364.696 225.943L374.606 243.316L374.627 243.303L374.648 243.291L364.696 225.943ZM368.054 225L368.05 245L368.058 245L368.054 225ZM375.251 230.767L394.001 223.808L394.001 223.808L375.251 230.767ZM371.422 244.06L352.626 250.895L360.846 273.5L381.572 261.293L371.422 244.06ZM371.422 244.059L390.218 237.224L381.986 214.586L361.247 226.84L371.422 244.059ZM371.42 244.06L352.669 251.019L360.995 273.451L381.594 261.279L371.42 244.06ZM371.078 243.138L389.828 236.179L352.319 250.074L371.078 243.138ZM371.416 244.063L381.55 261.306L381.557 261.302L381.565 261.297L371.416 244.063ZM371.41 244.067L381.509 261.33L381.526 261.32L381.543 261.31L371.41 244.067ZM371.395 244.076L381.452 261.363L381.473 261.351L381.494 261.339L371.395 244.076ZM371.356 244.098L381.393 261.398L381.403 261.392L381.413 261.386L371.356 244.098ZM371.245 244.162L361.337 226.789L361.335 226.79L371.245 244.162ZM371.075 244.258L361.305 226.807L361.303 226.808L371.075 244.258ZM370.891 244.361L380.541 261.878L380.542 261.878L370.891 244.361ZM369.668 245.007L378.761 262.821L378.761 262.821L369.668 245.007ZM365.322 247.017L357.567 228.582L357.567 228.582L365.322 247.017ZM350.182 251.631L354.035 271.257L354.035 271.257L350.182 251.631ZM340.057 252.9L338.985 232.929L338.985 232.929L340.057 252.9ZM329.986 252.695L328.064 272.602L328.064 272.602L329.986 252.695ZM303.575 244.06L293.426 261.293L293.426 261.293L303.575 244.06ZM299.747 230.767L280.996 223.808L280.996 223.808L299.747 230.767ZM306.466 225.018L304.95 205.076L304.949 205.076L306.466 225.018ZM307.236 225.007L306.3 244.985L306.307 244.985L307.236 225.007ZM310.302 225.943L320.451 208.71L320.451 208.71L310.302 225.943ZM334.825 232.981L334.259 252.973L334.26 252.973L334.825 232.981ZM341.812 232.739L343.725 252.647L343.725 252.647L341.812 232.739ZM347.735 231.871L351.588 251.497L351.588 251.497L347.735 231.871ZM360.291 228.048L352.536 209.613L352.536 209.613L360.291 228.048ZM363.704 226.472L354.612 208.659L354.611 208.659L363.704 226.472ZM364.526 226.038L374.178 243.555L374.179 243.554L364.526 226.038ZM-20 244C-20 389.803 98.1968 508 244 508V468C120.288 468 20 367.712 20 244H-20ZM244 -20C98.1968 -20 -20 98.1968 -20 244H20C20 120.288 120.288 20 244 20V-20ZM508 244C508 98.1968 389.803 -20 244 -20V20C367.712 20 468 120.288 468 244H508ZM244 508C389.803 508 508 389.803 508 244H468C468 367.712 367.712 468 244 468V508ZM201 359C201 382.748 220.252 402 244 402V362C242.343 362 241 360.657 241 359H201ZM244 316C220.252 316 201 335.252 201 359H241C241 357.343 242.343 356 244 356V316ZM287 359C287 335.252 267.748 316 244 316V356C245.657 356 247 357.343 247 359H287ZM244 402C267.748 402 287 382.748 287 359H247C247 360.657 245.657 362 244 362V402ZM180.9 205.026C176.518 205.218 172.328 206.5 168.622 208.668L188.815 243.196C187.094 244.203 184.982 244.885 182.659 244.987L180.9 205.026ZM183.309 205.03C182.507 204.992 181.701 204.99 180.893 205.026L182.666 244.986C182.243 245.005 181.822 245.004 181.405 244.984L183.309 205.03ZM208.004 223.808C204.543 214.482 195.859 205.628 183.309 205.03L181.404 244.984C174.609 244.66 171.358 240.028 170.503 237.726L208.004 223.808ZM195.574 261.293C209.658 252.999 212.465 235.828 208.004 223.808L170.503 237.726C169.867 236.013 169.878 234.362 170.306 232.877C170.707 231.485 171.943 228.789 175.275 226.827L195.574 261.293ZM166.708 251.108L166.708 251.109L204.141 237.011L204.141 237.01L166.708 251.108ZM195.557 261.302L195.559 261.301L175.29 226.817L175.288 226.818L195.557 261.302ZM166.334 250.109L166.672 251.019L204.173 237.101L203.835 236.191L166.334 250.109ZM195.652 261.247C195.566 261.298 199.678 259.132 202.531 254.416C205.17 250.054 205.405 245.939 205.419 244.217C205.433 242.389 205.186 240.974 205.089 240.446C204.967 239.783 204.837 239.265 204.767 238.998C204.628 238.467 204.497 238.058 204.459 237.939C204.403 237.766 204.356 237.629 204.333 237.559C204.257 237.338 204.183 237.135 204.17 237.101C204.11 236.935 204.01 236.664 203.843 236.214L166.326 250.086C166.496 250.548 166.564 250.733 166.587 250.795C166.616 250.875 166.563 250.73 166.497 250.538C166.475 250.476 166.43 250.344 166.376 250.175C166.339 250.06 166.209 249.654 166.07 249.124C166.001 248.859 165.87 248.341 165.749 247.679C165.652 247.152 165.406 245.737 165.42 243.909C165.433 242.187 165.668 238.072 168.307 233.711C171.16 228.995 175.272 226.828 175.186 226.88L195.652 261.247ZM195.51 261.331L195.517 261.327L175.321 226.8L175.315 226.803L195.51 261.331ZM195.504 261.334L195.519 261.326L175.306 226.809L175.291 226.818L195.504 261.334ZM195.419 261.384L195.457 261.362L175.337 226.79L175.299 226.813L195.419 261.384ZM195.156 261.535C195.24 261.488 195.318 261.443 195.391 261.4L175.326 226.797C175.34 226.789 175.344 226.786 175.339 226.789L195.156 261.535ZM194.771 261.752C194.911 261.674 195.039 261.602 195.155 261.536L175.34 226.789C175.338 226.79 175.32 226.8 175.289 226.818L194.771 261.752ZM194.709 261.787L194.754 261.762L175.307 226.808L175.262 226.832L194.709 261.787ZM194.572 261.863L194.665 261.812L175.307 226.808L175.214 226.859L194.572 261.863ZM192.764 262.821C193.478 262.456 194.074 262.137 194.544 261.878L175.241 226.844C175.123 226.909 174.899 227.03 174.578 227.194L192.764 262.821ZM187.08 265.452C189.422 264.467 191.337 263.549 192.763 262.821L174.578 227.194C173.935 227.522 172.913 228.017 171.569 228.582L187.08 265.452ZM168.038 271.257C175.901 269.713 182.434 267.407 187.08 265.452L171.569 228.582C168.861 229.722 164.969 231.096 160.332 232.006L168.038 271.257ZM151.591 272.992C157.588 272.908 163.127 272.221 168.038 271.257L160.332 232.006C157.46 232.57 154.329 232.95 151.036 232.995L151.591 272.992ZM149.775 272.998C150.385 273.002 150.99 273 151.59 272.992L151.036 232.995C150.707 233 150.377 233.001 150.046 232.999L149.775 272.998ZM107.428 261.293C122.138 269.957 136.885 272.911 149.776 272.998L150.045 232.999C143.17 232.953 135.534 231.424 127.727 226.827L107.428 261.293ZM94.9987 223.808C90.5374 235.828 93.3448 252.999 107.428 261.293L127.727 226.827C131.059 228.789 132.296 231.485 132.697 232.877C133.124 234.362 133.135 236.013 132.499 237.726L94.9987 223.808ZM120.942 205C107.786 205.002 98.5717 214.181 94.9987 223.808L132.499 237.726C131.623 240.087 128.13 244.999 120.947 245L120.942 205ZM134.454 208.71C130.385 206.314 125.746 204.998 120.934 205L120.954 245C118.395 245.001 116.046 244.291 114.154 243.177L134.454 208.71ZM150.123 213.002C145.112 212.966 139.8 211.859 134.454 208.71L114.154 243.177C126.404 250.391 138.821 252.922 149.837 253.001L150.123 213.002ZM150.849 212.999C150.608 213.003 150.365 213.003 150.122 213.002L149.838 253.001C150.358 253.004 150.875 253.003 151.389 252.996L150.849 212.999ZM157.885 212.246C155.639 212.687 153.272 212.967 150.848 212.999L151.39 252.996C156.517 252.926 161.295 252.34 165.591 251.497L157.885 212.246ZM166.538 209.613C164.499 210.471 161.481 211.54 157.885 212.246L165.591 251.497C172.414 250.157 178.073 248.156 182.049 246.483L166.538 209.613ZM168.614 208.659C168.249 208.845 167.539 209.192 166.538 209.613L182.049 246.483C184.048 245.643 185.652 244.872 186.799 244.286L168.614 208.659ZM168.877 208.521C168.885 208.517 168.795 208.566 168.614 208.659L186.799 244.286C187.374 243.993 187.837 243.745 188.181 243.555L168.877 208.521ZM168.788 208.571C168.845 208.539 168.875 208.522 168.879 208.52L188.179 243.556C188.351 243.461 188.494 243.381 188.608 243.316L168.788 208.571ZM168.766 208.584L168.746 208.596L188.651 243.291L188.671 243.28L168.766 208.584ZM354.763 208.584L354.743 208.596L374.648 243.291L374.668 243.28L354.763 208.584ZM368.058 205C363.278 204.999 358.669 206.299 354.619 208.668L374.813 243.196C372.926 244.299 370.591 245 368.05 245L368.058 205ZM394.001 223.808C390.428 214.179 381.21 204.997 368.05 205L368.058 245C360.872 245.001 357.377 240.088 356.501 237.726L394.001 223.808ZM381.572 261.293C395.655 252.999 398.463 235.828 394.001 223.808L356.501 237.726C355.865 236.013 355.876 234.362 356.303 232.877C356.704 231.485 357.941 228.789 361.273 226.827L381.572 261.293ZM352.626 250.894L352.626 250.895L390.218 237.225L390.218 237.224L352.626 250.894ZM381.594 261.279C381.57 261.293 381.549 261.305 381.531 261.316C381.513 261.326 381.498 261.335 381.486 261.342C381.474 261.349 381.464 261.355 381.458 261.358C381.455 261.36 381.453 261.361 381.451 261.362C381.45 261.363 381.449 261.364 381.449 261.363C381.449 261.363 381.449 261.363 381.449 261.363C381.449 261.363 381.449 261.363 381.449 261.363C381.45 261.363 381.45 261.363 381.45 261.363C381.45 261.363 381.451 261.363 381.452 261.362C381.453 261.361 381.456 261.36 381.459 261.358C381.465 261.355 381.474 261.349 381.487 261.342C381.499 261.335 381.514 261.326 381.532 261.315C381.551 261.304 381.572 261.292 381.596 261.277L361.247 226.84C361.271 226.826 361.293 226.814 361.311 226.803C361.329 226.792 361.344 226.783 361.356 226.776C361.368 226.77 361.378 226.764 361.383 226.761C361.386 226.759 361.389 226.757 361.39 226.757C361.391 226.756 361.393 226.755 361.392 226.755C361.392 226.755 361.392 226.755 361.392 226.755C361.392 226.755 361.392 226.755 361.392 226.755C361.392 226.756 361.392 226.756 361.392 226.756C361.391 226.756 361.391 226.756 361.39 226.757C361.388 226.758 361.386 226.759 361.383 226.761C361.377 226.764 361.367 226.77 361.355 226.777C361.343 226.784 361.327 226.793 361.309 226.804C361.291 226.815 361.269 226.827 361.245 226.841L381.594 261.279ZM352.327 250.097L352.669 251.019L390.17 237.101L389.828 236.179L352.327 250.097ZM381.565 261.297C381.565 261.297 381.585 261.285 381.605 261.274C381.625 261.262 381.685 261.226 381.725 261.202C381.826 261.141 381.992 261.04 382.194 260.911C382.597 260.653 383.217 260.237 383.93 259.665C385.471 258.429 387.131 256.72 388.517 254.436C391.175 250.053 391.404 245.915 391.416 244.201C391.429 242.373 391.182 240.959 391.085 240.433C390.963 239.772 390.832 239.255 390.763 238.99C390.624 238.461 390.493 238.053 390.455 237.935C390.399 237.762 390.353 237.626 390.329 237.557C390.254 237.336 390.18 237.134 390.167 237.099C390.106 236.932 390.005 236.658 389.836 236.202L352.319 250.074C352.492 250.542 352.561 250.73 352.584 250.795C352.614 250.875 352.561 250.732 352.495 250.54C352.474 250.478 352.429 250.347 352.375 250.179C352.338 250.065 352.208 249.66 352.07 249.133C352.001 248.868 351.87 248.352 351.749 247.692C351.652 247.167 351.405 245.753 351.417 243.925C351.429 242.211 351.658 238.073 354.317 233.691C355.702 231.407 357.362 229.698 358.903 228.461C359.616 227.89 360.236 227.473 360.639 227.216C360.841 227.087 361.007 226.986 361.108 226.925C361.148 226.901 361.208 226.865 361.228 226.853C361.248 226.841 361.268 226.83 361.268 226.83L381.565 261.297ZM381.543 261.31L381.55 261.306L361.283 226.821L361.277 226.824L381.543 261.31ZM381.494 261.339L381.509 261.33L361.311 226.804L361.296 226.813L381.494 261.339ZM381.413 261.386L381.452 261.363L361.338 226.789L361.299 226.811L381.413 261.386ZM381.154 261.535C381.237 261.488 381.317 261.442 381.393 261.398L361.32 226.799C361.329 226.794 361.334 226.791 361.337 226.789C361.339 226.788 361.339 226.788 361.337 226.789L381.154 261.535ZM380.845 261.71C380.957 261.647 381.06 261.589 381.156 261.534L361.335 226.79C361.334 226.791 361.324 226.796 361.305 226.807L380.845 261.71ZM380.542 261.878C380.651 261.818 380.752 261.762 380.847 261.709L361.303 226.808C361.287 226.817 361.266 226.829 361.239 226.844L380.542 261.878ZM378.761 262.821C379.476 262.456 380.072 262.137 380.541 261.878L361.24 226.843C361.12 226.909 360.896 227.03 360.576 227.194L378.761 262.821ZM373.077 265.452C375.419 264.467 377.335 263.549 378.761 262.821L360.576 227.194C359.933 227.522 358.91 228.017 357.567 228.582L373.077 265.452ZM354.035 271.257C361.899 269.713 368.431 267.407 373.077 265.452L357.567 228.582C354.858 229.722 350.967 231.096 346.33 232.006L354.035 271.257ZM341.129 272.872C345.773 272.622 350.103 272.029 354.035 271.257L346.33 232.006C344.034 232.457 341.569 232.79 338.985 232.929L341.129 272.872ZM328.064 272.602C332.633 273.044 337.011 273.093 341.13 272.872L338.985 232.929C336.696 233.052 334.328 233.021 331.908 232.788L328.064 272.602ZM293.426 261.293C305.231 268.246 317.106 271.544 328.064 272.602L331.908 232.788C326.208 232.237 320.045 230.549 313.725 226.827L293.426 261.293ZM280.996 223.808C276.535 235.828 279.342 252.999 293.426 261.293L313.725 226.827C317.057 228.789 318.293 231.485 318.694 232.877C319.122 234.362 319.133 236.013 318.497 237.726L280.996 223.808ZM304.949 205.076C292.768 206.002 284.39 214.663 280.996 223.808L318.497 237.726C317.656 239.991 314.542 244.462 307.982 244.961L304.949 205.076ZM308.172 205.029C307.092 204.978 306.016 204.995 304.95 205.076L307.982 244.961C307.427 245.003 306.865 245.011 306.3 244.985L308.172 205.029ZM320.451 208.71C316.747 206.529 312.554 205.232 308.164 205.028L306.307 244.985C303.98 244.877 301.869 244.188 300.152 243.177L320.451 208.71ZM335.39 212.989C330.608 212.854 325.553 211.715 320.451 208.71L300.152 243.177C311.807 250.041 323.628 252.672 334.259 252.973L335.39 212.989ZM339.899 212.83C338.418 212.973 336.91 213.032 335.389 212.989L334.26 252.973C337.557 253.066 340.723 252.935 343.725 252.647L339.899 212.83ZM343.883 212.246C342.594 212.499 341.262 212.699 339.899 212.83L343.725 252.647C346.485 252.382 349.115 251.982 351.588 251.497L343.883 212.246ZM352.536 209.613C350.497 210.471 347.479 211.54 343.883 212.246L351.588 251.497C358.411 250.157 364.07 248.156 368.046 246.483L352.536 209.613ZM354.611 208.659C354.247 208.845 353.537 209.192 352.536 209.613L368.046 246.483C370.045 245.643 371.649 244.872 372.797 244.286L354.611 208.659ZM354.875 208.521C354.883 208.517 354.793 208.566 354.612 208.659L372.797 244.286C373.371 243.993 373.834 243.745 374.178 243.555L354.875 208.521ZM354.786 208.571C354.843 208.538 354.872 208.522 354.874 208.522L374.179 243.554C374.349 243.461 374.491 243.381 374.606 243.316L354.786 208.571Z" fill="white" mask="url(#path-1-inside-1_2017_117)"/>
<path d="M405.408 85L375.454 114.954C371.593 118.815 370.438 124.622 372.528 129.666C374.617 134.711 379.54 138 385 138H438C445.456 138 451.5 131.956 451.5 124.5C451.5 117.044 445.456 111 438 111H417.592L447.546 81.0459C451.407 77.185 452.562 71.3784 450.473 66.3338C448.383 61.2892 443.461 58 438 58H385C377.544 58 371.5 64.0442 371.5 71.5C371.5 78.9558 377.544 85 385 85H405.408Z" fill="white" stroke="black" stroke-width="9" stroke-linecap="round" stroke-linejoin="round"/>
<path fill-rule="evenodd" clip-rule="evenodd" d="M466 50.5C462.686 50.5 460 47.8137 460 44.5C460 41.1863 462.686 38.5 466 38.5H493C495.427 38.5 497.615 39.9619 498.543 42.2039C499.472 44.4459 498.959 47.0267 497.243 48.7426L480.485 65.5H493C496.314 65.5 499 68.1863 499 71.5C499 74.8137 496.314 77.5 493 77.5H466C463.573 77.5 461.386 76.0382 460.457 73.7961C459.528 71.5541 460.042 68.9733 461.758 67.2574L478.515 50.5H466Z" fill="white"/>
<path fill-rule="evenodd" clip-rule="evenodd" d="M512.5 26.5C512.5 25.1193 513.62 24 515 24H534C535.024 24 535.944 24.6238 536.323 25.5746C536.702 26.5253 536.463 27.611 535.72 28.3149L521.274 42H534C535.381 42 536.5 43.1193 536.5 44.5C536.5 45.8807 535.381 47 534 47H515C513.977 47 513.057 46.3762 512.678 45.4254C512.299 44.4747 512.538 43.389 513.281 42.6851L527.726 29H515C513.62 29 512.5 27.8807 512.5 26.5Z" fill="white"/>
</svg>
