<svg width="237" height="285" viewBox="0 0 237 285" fill="none" xmlns="http://www.w3.org/2000/svg">
<mask id="path-1-outside-1_2021_230" maskUnits="userSpaceOnUse" x="0.653006" y="48.727" width="236" height="237" fill="black">
<rect fill="white" x="0.653006" y="48.727" width="236" height="237"/>
<path fill-rule="evenodd" clip-rule="evenodd" d="M19.653 167.307C19.9647 221.717 64.1687 265.729 118.652 265.729C173.329 265.729 217.653 221.405 217.653 166.728C217.653 112.051 173.329 67.727 118.652 67.727C96.0859 67.727 75.283 75.2772 58.6319 87.9893L58.1278 87.1161C74.93 74.3227 95.9041 66.727 118.652 66.727C173.881 66.727 218.653 111.499 218.653 166.728C218.653 221.957 173.881 266.729 118.652 266.729C63.6165 266.729 18.9647 222.269 18.653 167.307L19.653 167.307Z"/>
</mask>
<path fill-rule="evenodd" clip-rule="evenodd" d="M19.653 167.307C19.9647 221.717 64.1687 265.729 118.652 265.729C173.329 265.729 217.653 221.405 217.653 166.728C217.653 112.051 173.329 67.727 118.652 67.727C96.0859 67.727 75.283 75.2772 58.6319 87.9893L58.1278 87.1161C74.93 74.3227 95.9041 66.727 118.652 66.727C173.881 66.727 218.653 111.499 218.653 166.728C218.653 221.957 173.881 266.729 118.652 266.729C63.6165 266.729 18.9647 222.269 18.653 167.307L19.653 167.307Z" fill="white"/>
<path d="M19.653 167.307L37.6527 167.204C37.596 157.303 29.5539 149.307 19.653 149.307L19.653 167.307ZM58.6319 87.9893L43.0436 96.9895C45.6315 101.472 50.0237 104.623 55.0987 105.639C60.1738 106.655 65.4406 105.437 69.5546 102.296L58.6319 87.9893ZM58.1278 87.1161L47.2234 72.795C40.0162 78.2826 38.01 88.2713 42.5394 96.1163L58.1278 87.1161ZM18.653 167.307L18.653 149.307C13.8614 149.307 9.26761 151.218 5.88906 154.615C2.51052 158.013 0.626142 162.618 0.653315 167.409L18.653 167.307ZM1.65334 167.41C2.02173 231.715 54.2622 283.729 118.652 283.729L118.652 247.729C74.0753 247.729 37.9078 211.719 37.6527 167.204L1.65334 167.41ZM118.652 283.729C183.27 283.729 235.653 231.346 235.653 166.728L199.653 166.728C199.653 211.463 163.388 247.729 118.652 247.729L118.652 283.729ZM235.653 166.728C235.653 102.11 183.27 49.727 118.652 49.727L118.652 85.727C163.388 85.727 199.653 121.992 199.653 166.728L235.653 166.728ZM118.652 49.727C92.0029 49.727 67.3883 58.6584 47.7093 73.6821L69.5546 102.296C83.1778 91.896 100.169 85.727 118.652 85.727L118.652 49.727ZM42.5394 96.1163L43.0436 96.9895L74.2203 78.9891L73.7161 78.1159L42.5394 96.1163ZM118.652 48.727C91.8295 48.727 67.0506 57.6982 47.2234 72.795L69.0321 101.437C82.8093 90.9471 99.9786 84.727 118.652 84.727L118.652 48.727ZM236.653 166.728C236.653 101.558 183.822 48.727 118.652 48.727L118.652 84.727C163.94 84.727 200.653 121.44 200.653 166.728L236.653 166.728ZM118.652 284.729C183.822 284.729 236.653 231.898 236.653 166.728L200.653 166.728C200.653 212.016 163.94 248.729 118.652 248.729L118.652 284.729ZM0.653315 167.409C1.02114 232.267 53.7095 284.729 118.652 284.729L118.652 248.729C73.5234 248.729 36.9083 212.272 36.6527 167.205L0.653315 167.409ZM19.653 149.307L18.653 149.307L18.653 185.307L19.653 185.307L19.653 149.307Z" fill="white" mask="url(#path-1-outside-1_2021_230)"/>
<path d="M67.7413 18L37.4714 99.2126L118.684 129.483" stroke="white" stroke-width="36" stroke-linecap="round" stroke-linejoin="round"/>
</svg>
